<?xml version="1.0" encoding="UTF-8" standalone="no"?>
<!DOCTYPE svg PUBLIC "-//W3C//DTD SVG 1.1//EN" "http://www.w3.org/Graphics/SVG/1.1/DTD/svg11.dtd">
<svg xmlns="http://www.w3.org/2000/svg" xmlns:xlink="http://www.w3.org/1999/xlink" version="1.1" width="1293.12pt" height="638.828pt" viewBox="0 0 1293.12 638.828">
<g enable-background="new">
<g id="Layer-1" data-name="Layer 1">
<clipPath id="cp0">
<path transform="matrix(1,0,0,-1,0,638.828)" d="M 0 638.828 L 1293.122 638.828 L 1293.122 0 L 0 0 Z "/>
</clipPath>
<g clip-path="url(#cp0)">
<path transform="matrix(1,0,0,-1,360.0112,428.42103)" d="M 0 0 C -12.382 9.835 -24.771 19.675 -37.155 29.511 C 6.282 86.898 -14.738 157.253 -55.137 190.291 C -98.22 225.524 -160.162 225.024 -203.142 187.957 C -226.02 168.226 -238.787 142.36 -241.987 112.148 C -245.203 81.784 -236.562 54.638 -218.517 29.869 C -231.133 19.913 -243.542 10.121 -255.943 .335 C -296.099 46.612 -311.661 138.674 -251.31 206.805 C -185.94 280.6 -76.27 283.388 -7.969 210.997 C 52.841 146.545 44.552 52.699 0 0 " fill="#c61c22"/>
<path transform="matrix(1,0,0,-1,226.2807,462.7618)" d="M 0 0 L -148.368 0 C -98.647 40.188 -49.57 79.858 0 119.926 Z " fill="#373d41"/>
<path transform="matrix(1,0,0,-1,237.2875,342.8439)" d="M 0 0 C 49.563 -40.062 98.647 -79.734 148.384 -119.936 L 0 -119.936 Z " fill="#373d41"/>
</g>
<g id="Layer-1" data-name="Layer 2">
</g>
<clipPath id="cp1">
<path transform="matrix(1,0,0,-1,0,638.828)" d="M 0 638.828 L 1293.122 638.828 L 1293.122 0 L 0 0 Z "/>
</clipPath>
<g clip-path="url(#cp1)">
<path transform="matrix(1,0,0,-1,549.7592,290.5856)" d="M 0 0 C 0 26.226 -18.524 44.168 -43.158 44.168 C -67.792 44.168 -86.316 26.226 -86.316 0 C -86.316 -26.226 -67.792 -44.169 -43.158 -44.169 C -18.524 -44.169 0 -26.226 0 0 M -118.636 0 C -118.636 41.014 -86.711 71.38 -43.158 71.38 C .197 71.38 32.319 41.211 32.319 0 C 32.319 -41.211 .197 -71.38 -43.158 -71.38 C -86.711 -71.38 -118.636 -41.014 -118.636 0 " fill="#c61c22"/>
<path transform="matrix(1,0,0,-1,731.6557,359.5187)" d="M 0 0 L -.196 82.77 L -40.793 14.583 L -55.179 14.583 L -95.578 80.996 L -95.578 0 L -125.533 0 L -125.533 137.949 L -99.126 137.949 L -47.494 52.224 L 3.351 137.949 L 29.561 137.949 L 29.955 0 Z " fill="#c61c22"/>
<path transform="matrix(1,0,0,-1,901.1371,333.8995)" d="M 0 0 L 0 -25.619 L -106.813 -25.619 L -106.813 112.33 L -2.563 112.33 L -2.563 86.71 L -75.084 86.71 L -75.084 56.756 L -11.036 56.756 L -11.036 31.926 L -75.084 31.926 L -75.084 0 Z " fill="#c61c22"/>
<path transform="matrix(1,0,0,-1,1019.3803,288.3771)" d="M 0 0 L 29.166 0 L 29.166 -55.968 C 13.991 -67.397 -6.898 -73.507 -26.605 -73.507 C -69.961 -73.507 -101.886 -43.75 -101.886 -2.167 C -101.886 39.415 -69.961 69.172 -26.014 69.172 C -1.774 69.172 18.327 60.895 31.727 45.326 L 11.231 26.408 C 1.182 37.049 -10.445 41.976 -24.437 41.976 C -51.238 41.976 -69.567 24.043 -69.567 -2.167 C -69.567 -27.983 -51.238 -46.312 -24.832 -46.312 C -16.16 -46.312 -8.081 -44.734 0 -40.399 Z " fill="#c61c22"/>
<path transform="matrix(1,0,0,-1,1158.9066,305.7189)" d="M 0 0 L -21.875 52.814 L -43.749 0 Z M 10.052 -24.239 L -53.996 -24.239 L -66.215 -53.8 L -98.929 -53.8 L -37.442 84.149 L -5.912 84.149 L 55.771 -53.8 L 22.27 -53.8 Z " fill="#c61c22"/>
<path transform="matrix(1,0,0,-1,469.351,407.0499)" d="M 0 0 L 0 -25.338 L 33.354 -25.338 L 33.354 -31.234 L 0 -31.234 L 0 -58.6 L -6.818 -58.6 L -6.818 5.897 L 37.408 5.897 L 37.408 0 Z " fill="#373d41"/>
<path transform="matrix(1,0,0,-1,622.9194,422.34584)" d="M 0 0 C 0 10.319 -6.818 16.217 -19.718 16.217 L -36.855 16.217 L -36.855 -16.124 L -19.718 -16.124 C -6.818 -16.124 0 -10.136 0 0 M .369 -42.384 L -14.374 -21.653 C -16.032 -21.837 -17.69 -21.929 -19.533 -21.929 L -36.855 -21.929 L -36.855 -42.384 L -43.673 -42.384 L -43.673 22.113 L -19.533 22.113 C -3.133 22.113 6.818 13.82 6.818 0 C 6.818 -10.136 1.475 -17.229 -7.924 -20.271 L 7.832 -42.384 Z " fill="#373d41"/>
<path transform="matrix(1,0,0,-1,750.1674,459.1407)" d="M 0 0 L 0 -5.897 L -45.608 -5.897 L -45.608 58.6 L -1.382 58.6 L -1.382 52.703 L -38.79 52.703 L -38.79 29.76 L -5.436 29.76 L -5.436 23.955 L -38.79 23.955 L -38.79 0 Z " fill="#373d41"/>
<path transform="matrix(1,0,0,-1,0,638.828)" d="M 823.73 237.979 L 830.548 237.979 L 830.548 173.482 L 823.73 173.482 Z " fill="#373d41"/>
<path transform="matrix(1,0,0,-1,955.1537,432.1778)" d="M 0 0 L 6.541 0 L 6.541 -24.601 C .46 -30.037 -8.201 -32.802 -17.139 -32.802 C -36.764 -32.802 -51.137 -18.888 -51.137 0 C -51.137 18.889 -36.764 32.802 -17.047 32.802 C -7.279 32.802 1.197 29.668 6.909 23.495 L 2.672 19.165 C -2.765 24.509 -9.215 26.721 -16.77 26.721 C -32.71 26.721 -44.411 15.388 -44.411 0 C -44.411 -15.294 -32.71 -26.72 -16.862 -26.72 C -10.689 -26.72 -4.976 -25.338 0 -21.744 Z " fill="#373d41"/>
<path transform="matrix(1,0,0,-1,1092.6283,400.2374)" d="M 0 0 L 0 -64.497 L -6.726 -64.497 L -6.726 -34.736 L -47.082 -34.736 L -47.082 -64.497 L -53.9 -64.497 L -53.9 0 L -47.082 0 L -47.082 -28.747 L -6.726 -28.747 L -6.726 0 Z " fill="#373d41"/>
<path transform="matrix(1,0,0,-1,1183.9428,406.4425)" d="M 0 0 L -22.666 0 L -22.666 5.896 L 29.484 5.896 L 29.484 0 L 6.818 0 L 6.818 -58.601 L 0 -58.601 Z " fill="#373d41"/>
</g>
</g>
</g>
</svg>
